# xmcd CD database file
#
# Track frame offsets:
#	150
#	9281
#	28506
#	41473
#	57035
#	77105
#	86959
#	105771
#	123835
#	139271
#	157223
#
# Disc length: 2377 seconds
#
# Revision: 0
# Processed by: cddbd v1.5.2PL0 Copyright (c) Steve Scherf et al.
# Submitted via: CDex 2.16
#
DISCID=7f09470b
DTITLE=Little Miss Higgins - Bison Ranch Recording Sessions
DYEAR=2013
DGENRE=Blues
TTITLE0=Heavy train
TTITLE1=Your house tonight
TTITLE2=Keep a song in your soul
TTITLE3=Chateau Poulet
TTITLE4=Barns you used to dance in
TTITLE5=Early morning thief
TTITLE6=Restless heart
TTITLE7=Dead cow hill
TTITLE8=I was at an auction
TTITLE9=Moonlit picninc
TTITLE10=Blue moon behind me
EXTD=YEAR: 2013
EXTT0=
EXTT1=
EXTT2=
EXTT3=
EXTT4=
EXTT5=
EXTT6=
EXTT7=
EXTT8=
EXTT9=
EXTT10=
PLAYORDER=
